<svg version="1.0" xmlns="http://www.w3.org/2000/svg" width="189.333" height="189.333" viewBox="0 0 142 142"><path d="M98 1.1C82.6 3 70.7 7.8 56 18.1 47.2 24.3 31.2 40 25.1 48.3c-13 17.8-14.4 33.3-3.6 39.4 7.2 4.1 19.7 2.1 23.9-3.8 2.3-3.4 2-4-1.6-3.3-8.4 1.5-16.9.2-19-3-4.3-6.4 6.7-25.8 24.7-43.8 17.2-17.3 47.8-28.5 60.7-22.4 7.6 3.6 9.1 14.2 4.3 29.6-6.8 21.6-16.6 35.6-29.1 41.5-5.3 2.5-5.5 2.7-3.9 4.5 2.8 3.1 6.5 3.9 11.5 2.4 12.2-3.6 26.3-22.4 31.9-42.7 2.9-10.3 3.1-11 3.6-19.2.7-12.6-2.2-19.8-9.6-23.5C114 1.5 105.2.3 98 1.1z"/><path d="M73.8 58.7c-16.9 68.4-17.5 73.1-11 80.5 1.8 2.1 5.5 2.4 7 .5.5-.6 1.2-5.5 1.5-10.7.6-10.1 2.5-21.4 5.2-32l2-8c.8-3.9 2.1-8.8 6.6-25.3 7-25.1 8.2-31.6 6.7-33.6-2.2-2.9-6.3-6-7.9-6.1-1.2 0-3.3 7.2-10.1 34.7z"/></svg>