<svg width="222" height="113" fill="none" xmlns="http://www.w3.org/2000/svg"><path d="M219.737 25.066c-2.087 5.392-8.175 13.219-13.393 14.263-5.044 1.217-7.131-3.827-4.696-13.915 2.435-10.088 10.436-14.785 11.306-10.61 1.043 4.522-4.871 6.783-4.871 6.783 10.263 7.827 13.22-11.827 2.957-12.175-8.522-.348-13.567 9.044-14.61 10.958-.348.695-1.74 3.13-2.609 6.435 0 0-4.523 16.35-9.741 16.176-5.218-.174 4.697-21.568 5.914-25.394 1.218-3.827-3.652-2.435-5.392-2.435-1.391 0-1.565.87-2.957 5.218-.522-1.74-2.783-6.436-9.218-2.435-7.827 4.696-13.915 15.828-14.089 25.742-.174 9.74 10.784 13.915 17.741-1.913 0 3.478 1.392 6.087 5.044 6.261 6.262.522 10.089-7.305 12.002-12.523.522 3.479 2.435 6.61 7.131 8.175 13.045 4.522 21.742-16.698 21.742-16.698s-.869-5.392-2.261-1.913zm-52.702 20.35c-2.609-1.391 1.217-10.958 2.435-14.088 1.565-4 6.957-12.176 9.218-10.089 2.262 2.088-2.435 13.22-2.435 13.22s-5.566 12.87-9.218 10.957zm-36.688-44.18c-26.612 5.218-42.44 24.351-43.832 29.047-1.565 4.697 8.87 1.044 9.74-2.087.87-3.13 1.74-4.696 12.35-12.697s51.137-21.394 45.397 5.74c-5.914 27.134-26.09 33.743-26.09 33.743 3.305-12.002 10.784-36.7 9.392-39.483-1.565-2.783-4.87-5.392-5.392-3.479 0 0-3.304 12.175-6.957 26.612-.348 1.044-3.827 14.089-12.523 19.829-9.045 5.913-9.741-1.914-8.871-8.697.87-6.61 6.088-18.263 10.436-15.828 4.348 2.609-2.609 8.87-2.609 8.87 6.957 5.219 10.436-6.087 6.436-10.61-4.175-4.522-13.567-2.435-18.96 8.523-.869 1.74-1.565 3.479-2.26 5.392 0 0-5.74 17.916-10.958 17.742-5.219-.174 4.696-21.568 5.913-25.395 1.392-3.826-3.652-2.435-5.392-2.435-1.739 0-1.739 1.392-4.348 9.219s-8.523 22.96.696 23.655c5.913.522 10.262-7.48 12.523-13.393.174 5.74 3.13 10.088 9.914 9.566 9.045-.695 14.611-9.74 16.872-14.436-4.348 16.35-8.001 31.134-7.479 32.352 1.043 2.782 5.392 6.087 6.783 5.392 1.392-.696 3.131-20.35 5.914-30.96.174-.697.348-1.392.696-2.262 2.957 3.13 8.349 2.609 8.349 2.609 12.523-1.913 22.785-23.307 25.046-36.352 2.435-13.22-4.174-25.395-30.786-20.177zM76.596 24.199c-5.218-11.48-31.656-10.262-53.746 8.87C.76 52.203-3.414 67.858 2.326 73.945c5.74 6.088 16.002 4 19.307-1.043 3.305-5.044-1.74.348-10.784-1.566-9.045-1.913-2.61-15.132 11.827-30.786 14.437-15.654 55.138-30.96 46.615.522-8.349 31.482-24.873 32.873-24.873 32.873 4.697-18.089 10.262-34.787 8.871-36.7-1.74-2.435-6.088-6.61-6.784-4 0 0-18.089 67.312-16.002 73.226 2.088 5.914 5.74 6.784 7.48 5.218 1.739-1.391-1.044-4.696 3.826-26.612.87-3.652 1.74-7.48 2.783-11.306 3.305 5.044 8.001 3.827 8.001 3.827C72.248 71.51 81.814 35.854 76.596 24.2z" fill="#fff"/></svg>