<svg width="14" height="18" viewBox="0 0 14 18" fill="none" xmlns="http://www.w3.org/2000/svg">
<path d="M7.95375 0.493791C7.49811 -0.117722 6.5029 -0.117722 6.04721 0.493791C4.35062 2.75999 0.405762 8.34154 0.405762 11.2672C0.405762 14.9783 3.36141 17.9998 7.00051 17.9998C10.6396 17.9998 13.5953 14.9783 13.5953 11.2672C13.5953 8.34154 9.6504 2.75999 7.95375 0.493791ZM8.55927 14.9783C8.49931 14.9962 8.44536 15.0022 8.3914 15.0022C8.15759 15.0022 7.94176 14.8703 7.84583 14.6485C7.71993 14.3787 7.81586 14.061 8.06772 13.8991C8.15165 13.8452 10.0102 12.5922 9.86029 9.63651C9.8483 9.34274 10.0401 9.08495 10.3279 9.019C10.6097 8.95905 10.9035 9.10893 11.0114 9.37871C11.0473 9.45665 11.8327 11.3931 11.0294 13.0598C10.5797 13.989 9.74632 14.6365 8.55927 14.9783Z" fill="url(#paint0_linear)"/>
<defs>
<linearGradient id="paint0_linear" x1="7.00051" y1="0.0351562" x2="7.00051" y2="17.9998" gradientUnits="userSpaceOnUse">
<stop stop-color="#6D49C5"/>
<stop offset="1" stop-color="#472D88"/>
</linearGradient>
</defs>
</svg>
