<svg width="18" height="14" viewBox="0 0 18 14" fill="none" xmlns="http://www.w3.org/2000/svg">
<path fill-rule="evenodd" clip-rule="evenodd" d="M0.400488 -0.000976562C0.179574 -0.000976562 0.000488281 0.17811 0.000488281 0.399024V3.59902C0.000488281 3.81994 0.179574 3.99902 0.400488 3.99902H11.6005C11.8214 3.99902 12.0005 3.81994 12.0005 3.59902V0.399023C12.0005 0.17811 11.8214 -0.000976562 11.6005 -0.000976562H0.400488ZM13.4005 -0.000976562C13.1796 -0.000976562 13.0005 0.17811 13.0005 0.399024V3.59902C13.0005 3.81994 13.1796 3.99902 13.4005 3.99902H17.6005C17.8214 3.99902 18.0005 3.81994 18.0005 3.59902V0.399023C18.0005 0.17811 17.8214 -0.000976562 17.6005 -0.000976562H13.4005ZM0.000488281 5.39902C0.000488281 5.17811 0.179574 4.99902 0.400488 4.99902H7.60049C7.8214 4.99902 8.00049 5.17811 8.00049 5.39902V13.599C8.00049 13.8199 7.8214 13.999 7.60049 13.999H0.400488C0.179574 13.999 0.000488281 13.8199 0.000488281 13.599V5.39902ZM9.40049 4.99902C9.17957 4.99902 9.00049 5.17811 9.00049 5.39902V13.599C9.00049 13.8199 9.17957 13.999 9.40049 13.999H17.6005C17.8214 13.999 18.0005 13.8199 18.0005 13.599V5.39902C18.0005 5.17811 17.8214 4.99902 17.6005 4.99902H9.40049Z" fill="url(#paint0_linear)"/>
<defs>
<linearGradient id="paint0_linear" x1="9.00049" y1="5.72882" x2="9.00049" y2="14.1988" gradientUnits="userSpaceOnUse">
<stop stop-color="#6D49C5"/>
<stop offset="1" stop-color="#472D88"/>
</linearGradient>
</defs>
</svg>
