<svg width="34" height="34" viewBox="0 0 34 34" fill="none" xmlns="http://www.w3.org/2000/svg">
<path fill-rule="evenodd" clip-rule="evenodd" d="M15.5843 0H18.4177V4.25H15.5843V0ZM5.97806 3.98093L3.97461 5.98438L6.97978 8.98955L8.98323 6.9861L5.97806 3.98093ZM4.25 15.5813H0V18.4147H4.25V15.5813ZM28.0192 3.97956L25.014 6.98473L27.0175 8.98818L30.0227 5.98301L28.0192 3.97956ZM29.75 15.5813H34V18.4147H29.75V15.5813ZM27.0175 25.0118L25.014 27.0153L28.0192 30.0204L30.0227 28.017L27.0175 25.0118ZM15.5843 29.75H18.4177V34H15.5843V29.75ZM6.97978 25.0105L3.97461 28.0156L5.97806 30.0191L8.98323 27.0139L6.97978 25.0105ZM7.08434 16.998C7.08434 11.5297 11.5341 7.08132 17.001 7.08132C22.4679 7.08132 26.9177 11.5297 26.9177 16.998C26.9177 22.4663 22.4679 26.9147 17.001 26.9147C11.5341 26.9147 7.08434 22.4663 7.08434 16.998ZM17.001 9.91465C13.0953 9.91465 9.91767 13.0922 9.91767 16.998C9.91767 20.9037 13.0953 24.0813 17.001 24.0813V9.91465Z" fill="url(#paint0_linear)"/>
<defs>
<linearGradient id="paint0_linear" x1="17" y1="0" x2="17" y2="34" gradientUnits="userSpaceOnUse">
<stop stop-color="#6D49C5"/>
<stop offset="1" stop-color="#472D88"/>
</linearGradient>
</defs>
</svg>
