<svg width="26" height="26" viewBox="0 0 26 26" fill="none" xmlns="http://www.w3.org/2000/svg">
<path fill-rule="evenodd" clip-rule="evenodd" d="M3.51921 13.7495L9.37609 19.6063C9.66898 19.8992 9.66898 20.3741 9.37609 20.667C9.0832 20.9599 8.60832 20.9599 8.31543 20.667L1.17881 13.5304C1.15954 13.5111 1.14154 13.491 1.1248 13.4703C0.886689 13.1758 0.904533 12.7429 1.17834 12.4691L8.31495 5.33251C8.60785 5.03962 9.08272 5.03962 9.37561 5.33251C9.66851 5.6254 9.66851 6.10028 9.37561 6.39317L3.51933 12.2495L24.643 12.2495C25.0572 12.2495 25.393 12.5852 25.393 12.9995C25.393 13.4137 25.0572 13.7495 24.643 13.7495L3.51921 13.7495Z" fill="white"/>
</svg>
