<svg width="22" height="22" viewBox="0 0 22 22" fill="none" xmlns="http://www.w3.org/2000/svg">
<path fill-rule="evenodd" clip-rule="evenodd" d="M20.7301 10.8621C20.736 10.6628 20.6629 10.4617 20.5108 10.3096C20.4954 10.2942 20.4794 10.2796 20.463 10.2657L11.3741 1.17681C11.0812 0.883921 10.6063 0.883921 10.3134 1.17681C10.0205 1.46971 10.0205 1.94458 10.3134 2.23747L18.9179 10.8419L10.3135 19.4462C10.0206 19.7391 10.0206 20.214 10.3135 20.5069C10.6064 20.7998 11.0813 20.7998 11.3742 20.5069L20.4642 11.4169C20.4801 11.4034 20.4957 11.3891 20.5107 11.3741C20.6525 11.2323 20.7256 11.0479 20.7301 10.8621Z" fill="#DD5757"/>
</svg>
