<svg width="22" height="22" viewBox="0 0 22 22" fill="none" xmlns="http://www.w3.org/2000/svg">
<path fill-rule="evenodd" clip-rule="evenodd" d="M0.957356 10.8215C0.951507 11.0207 1.02462 11.2219 1.1767 11.374C1.19214 11.3894 1.20809 11.404 1.22449 11.4178L10.3134 20.5068C10.6063 20.7997 11.0812 20.7997 11.3741 20.5068C11.667 20.2139 11.667 19.739 11.3741 19.4461L2.76964 10.8417L11.374 2.23735C11.6669 1.94446 11.6669 1.46958 11.374 1.17669C11.0811 0.883795 10.6062 0.883796 10.3133 1.17669L1.2233 10.2667C1.20735 10.2802 1.19184 10.2945 1.1768 10.3095C1.03502 10.4513 0.961872 10.6357 0.957356 10.8215Z" fill="#FFDDDC"/>
</svg>
