<svg width="26" height="26" viewBox="0 0 26 26" fill="none" xmlns="http://www.w3.org/2000/svg">
<path fill-rule="evenodd" clip-rule="evenodd" d="M22.6566 12.2427L16.7997 6.38585C16.5068 6.09296 16.5068 5.61809 16.7997 5.32519C17.0926 5.0323 17.5675 5.0323 17.8604 5.32519L24.997 12.4618C25.0164 12.4812 25.0345 12.5014 25.0513 12.5223C25.2891 12.8168 25.2711 13.2494 24.9974 13.5231L17.8608 20.6597C17.5679 20.9526 17.0931 20.9526 16.8002 20.6597C16.5073 20.3668 16.5073 19.8919 16.8002 19.599L22.6565 13.7427L1.53277 13.7427C1.11856 13.7427 0.782775 13.4069 0.782774 12.9927C0.782775 12.5785 1.11856 12.2427 1.53278 12.2427L22.6566 12.2427Z" fill="white"/>
</svg>
