<svg width="10" height="10" viewBox="0 0 10 10" fill="none" xmlns="http://www.w3.org/2000/svg">
<path d="M6.04851 4.98435L9.2723 1.79186L9.92958 1.13459C10.0235 1.04069 10.0235 0.884194 9.92958 0.758998L9.241 0.0704225C9.11581 -0.0234742 8.95931 -0.0234742 8.86541 0.0704225L5.01565 3.95149L1.13459 0.0704225C1.04069 -0.0234742 0.884194 -0.0234742 0.758998 0.0704225L0.0704225 0.758998C-0.0234742 0.884194 -0.0234742 1.04069 0.0704225 1.13459L3.95149 4.98435L0.0704225 8.86541C-0.0234742 8.95931 -0.0234742 9.11581 0.0704225 9.241L0.758998 9.92958C0.884194 10.0235 1.04069 10.0235 1.13459 9.92958L5.01565 6.04851L8.20814 9.2723L8.86541 9.92958C8.95931 10.0235 9.11581 10.0235 9.241 9.92958L9.92958 9.241C10.0235 9.11581 10.0235 8.95931 9.92958 8.86541L6.04851 4.98435Z" fill="black"/>
</svg>
