<svg width="222" height="113" viewBox="0 0 222 113" fill="none" xmlns="http://www.w3.org/2000/svg">
<path d="M219.737 25.0659C217.65 30.4579 211.562 38.285 206.344 39.3286C201.3 40.5461 199.213 35.502 201.648 25.4138C204.083 15.3256 212.084 10.6293 212.954 14.8038C213.997 19.3261 208.083 21.5872 208.083 21.5872C218.346 29.4143 221.303 9.75963 211.04 9.41176C202.518 9.06389 197.473 18.4564 196.43 20.3697C196.082 21.0654 194.69 23.5005 193.821 26.8053C193.821 26.8053 189.298 43.1552 184.08 42.9812C178.862 42.8073 188.777 21.4133 189.994 17.5867C191.212 13.7601 186.342 15.1516 184.602 15.1516C183.211 15.1516 183.037 16.0213 181.645 20.3697C181.123 18.6303 178.862 13.9341 172.427 17.9346C164.6 22.6308 158.512 33.7627 158.338 43.677C158.164 53.4173 169.122 57.5918 176.079 41.7637C176.079 45.2424 177.471 47.8514 181.123 48.0254C187.385 48.5472 191.212 40.7201 193.125 35.502C193.647 38.9807 195.56 42.1116 200.256 43.677C213.301 48.1993 221.998 26.9792 221.998 26.9792C221.998 26.9792 221.129 21.5872 219.737 25.0659ZM167.035 45.4163C164.426 44.0248 168.252 34.4584 169.47 31.3276C171.035 27.3271 176.427 19.1521 178.688 21.2394C180.95 23.3266 176.253 34.4584 176.253 34.4584C176.253 34.4584 170.687 47.3296 167.035 45.4163Z" fill="white"/>
<path d="M130.347 1.23607C103.735 6.45412 87.9067 25.587 86.5152 30.2832C84.9498 34.9795 95.3859 31.3268 96.2556 28.196C97.1253 25.0652 97.995 23.4998 108.605 15.4987C119.215 7.49773 159.742 -5.89527 154.002 21.2386C148.088 48.3725 127.912 54.982 127.912 54.982C131.217 42.9805 138.696 18.2817 137.304 15.4987C135.739 12.7158 132.434 10.1068 131.912 12.02C131.912 12.02 128.608 24.1955 124.955 38.6321C124.607 39.6757 121.128 52.7209 112.432 58.4607C103.387 64.3745 102.691 56.5474 103.561 49.764C104.431 43.1544 109.649 31.5008 113.997 33.9359C118.345 36.5449 111.388 42.8066 111.388 42.8066C118.345 48.0246 121.824 36.7188 117.824 32.1965C113.649 27.6742 104.257 29.7614 98.8646 40.7193C97.995 42.4587 97.2992 44.198 96.6035 46.1113C96.6035 46.1113 90.8636 64.0266 85.6456 63.8527C80.4275 63.6788 90.3418 42.2847 91.5594 38.4582C92.9508 34.6316 87.9067 36.0231 86.1674 36.0231C84.428 36.0231 84.428 37.4146 81.819 45.2416C79.21 53.0687 73.2962 68.2011 82.5147 68.8968C88.4285 69.4186 92.7769 61.4176 95.0381 55.5038C95.212 61.2437 98.1689 65.5921 104.952 65.0703C113.997 64.3745 119.563 55.3299 121.824 50.6336C117.476 66.9835 113.823 81.768 114.345 82.9856C115.388 85.7685 119.737 89.0733 121.128 88.3776C122.52 87.6818 124.259 68.0271 127.042 57.4171C127.216 56.7214 127.39 56.0256 127.738 55.156C130.695 58.2868 136.087 57.765 136.087 57.765C148.61 55.8517 158.872 34.4577 161.133 21.4125C163.568 8.19347 156.959 -3.98199 130.347 1.23607Z" fill="white"/>
<path d="M76.5963 24.1989C71.3782 12.7192 44.9401 13.9367 22.8503 33.0696C0.760545 52.2024 -3.4139 67.8566 2.32596 73.9443C8.06582 80.032 18.328 77.9448 21.6328 72.9007C24.9375 67.8566 19.8934 73.2486 10.8488 71.3353C1.80416 69.422 8.23976 56.2029 22.6764 40.5488C37.113 24.8946 77.8138 9.58832 69.291 41.0706C60.9421 72.5528 44.4183 73.9443 44.4183 73.9443C49.1145 55.8551 54.6804 39.1573 53.289 37.244C51.5496 34.8089 47.2012 30.6345 46.5055 33.2435C46.5055 33.2435 28.4162 100.556 30.5035 106.47C32.5907 112.384 36.2433 113.254 37.9827 111.688C39.722 110.297 36.9391 106.992 41.8092 85.0761C42.6789 81.4235 43.5486 77.5969 44.5922 73.7704C47.897 78.8145 52.5932 77.5969 52.5932 77.5969C72.2479 71.5092 81.8143 35.8525 76.5963 24.1989Z" fill="white"/>
</svg>
