<?xml version="1.0" encoding="utf-8"?><svg viewBox="0 0 26 26" xmlns="http://www.w3.org/2000/svg" xmlns:xlink="http://www.w3.org/1999/xlink"><style>:root>svg{display:none}:root>svg:target{display:block}</style><svg viewBox="0 0 22 22" id="arrow-left" xmlns="http://www.w3.org/2000/svg"><path fill-rule="evenodd" clip-rule="evenodd" d="M.957 10.822a.748.748 0 00.267.596l9.09 9.089a.75.75 0 001.06-1.06L2.77 10.841l8.604-8.605a.75.75 0 10-1.06-1.06l-9.09 9.09a.747.747 0 00-.266.555z"/></svg><svg viewBox="0 0 26 26" id="arrow-left-point" xmlns="http://www.w3.org/2000/svg"><path fill-rule="evenodd" clip-rule="evenodd" d="M3.52 13.75l5.856 5.856a.75.75 0 01-1.06 1.061L1.178 13.53a.75.75 0 010-1.061l7.136-7.136a.75.75 0 011.06 1.06L3.52 12.25h21.124a.75.75 0 110 1.5H3.519z"/></svg><svg viewBox="0 0 22 22" id="arrow-right" xmlns="http://www.w3.org/2000/svg"><path fill-rule="evenodd" clip-rule="evenodd" d="M20.73 10.862a.748.748 0 00-.267-.596l-9.089-9.09a.75.75 0 00-1.06 1.061l8.604 8.605-8.604 8.604a.75.75 0 001.06 1.06l9.09-9.09a.747.747 0 00.266-.555z"/></svg><svg viewBox="0 0 26 26" id="arrow-right-point" xmlns="http://www.w3.org/2000/svg"><path fill-rule="evenodd" clip-rule="evenodd" d="M22.657 12.243L16.8 6.386a.75.75 0 111.06-1.06l7.137 7.136a.75.75 0 010 1.061l-7.136 7.137a.75.75 0 11-1.06-1.061l5.856-5.856H1.533a.75.75 0 010-1.5h21.124z"/></svg><svg viewBox="0 0 12 9" id="check" xmlns="http://www.w3.org/2000/svg"><path d="M10.195.469L4.031 6.633l-2.25-2.274c-.117-.093-.304-.093-.398 0l-.68.68c-.094.094-.094.281 0 .399l3.14 3.117a.27.27 0 00.4 0l7.03-7.032c.094-.093.094-.28 0-.398l-.68-.656c-.093-.117-.28-.117-.398 0z"/></svg><svg viewBox="0 0 10 10" id="close" xmlns="http://www.w3.org/2000/svg"><path d="M6.049 4.984l3.223-3.192.658-.657c.094-.094.094-.25 0-.376L9.24.07c-.125-.093-.282-.093-.376 0l-3.85 3.881-3.88-3.88C1.04-.024.885-.024.759.07L.07.758c-.093.125-.093.282 0 .376l3.881 3.85-3.88 3.88c-.094.094-.094.25 0 .376l.688.689c.125.094.282.094.376 0l3.88-3.881 3.193 3.223.657.658c.094.094.25.094.376 0l.689-.689c.094-.125.094-.282 0-.376l-3.881-3.88z"/></svg><svg viewBox="0 0 11 12" id="play" xmlns="http://www.w3.org/2000/svg"><path d="M9.836 4.705L2.273.236C1.65-.129.727.236.727 1.117v8.938c0 .816.859 1.31 1.546.902l7.563-4.469a1.045 1.045 0 000-1.783z"/></svg></svg>