<?xml version="1.0" standalone="no"?>
<!DOCTYPE svg PUBLIC "-//W3C//DTD SVG 20010904//EN"
 "http://www.w3.org/TR/2001/REC-SVG-20010904/DTD/svg10.dtd">
<svg version="1.0" xmlns="http://www.w3.org/2000/svg"
 width="142.000000pt" height="142.000000pt" viewBox="0 0 142.000000 142.000000"
 preserveAspectRatio="xMidYMid meet">
<metadata>
Created by potrace 1.11, written by Peter Selinger 2001-2013
</metadata>
<g transform="translate(0.000000,142.000000) scale(0.100000,-0.100000)"
fill="#000000" stroke="none">
<path d="M980 1409 c-154 -19 -273 -67 -420 -170 -88 -62 -248 -219 -309 -302
-130 -178 -144 -333 -36 -394 72 -41 197 -21 239 38 23 34 20 40 -16 33 -84
-15 -169 -2 -190 30 -43 64 67 258 247 438 172 173 478 285 607 224 76 -36 91
-142 43 -296 -68 -216 -166 -356 -291 -415 -53 -25 -55 -27 -39 -45 28 -31 65
-39 115 -24 122 36 263 224 319 427 29 103 31 110 36 192 7 126 -22 198 -96
235 -49 25 -137 37 -209 29z"/>
<path d="M738 833 c-169 -684 -175 -731 -110 -805 18 -21 55 -24 70 -5 5 6 12
55 15 107 6 101 25 214 52 320 9 36 18 72 20 80 8 39 21 88 66 253 70 251 82
316 67 336 -22 29 -63 60 -79 61 -12 0 -33 -72 -101 -347z"/>
</g>
</svg>
