<svg width="25" height="24" fill="none" xmlns="http://www.w3.org/2000/svg"><path d="M15.103 6.004a2.106 2.106 0 01-2.109-2.106 2.1 2.1 0 01-2.105 2.105 2.1 2.1 0 012.105 2.11 2.11 2.11 0 012.109-2.11z" fill="url(#paint0_linear)"/><path d="M9.52 4.595c0-.563.455-1.02 1.018-1.02A1.017 1.017 0 019.52 2.56a1.015 1.015 0 01-1.017 1.017A1.015 1.015 0 019.52 4.596z" fill="url(#paint1_linear)"/><path d="M16.476 4.595c0-.563.457-1.02 1.02-1.02-.563 0-1.02-.454-1.02-1.016a1.015 1.015 0 01-1.017 1.017 1.015 1.015 0 011.017 1.019z" fill="url(#paint2_linear)"/><path d="M5.953 7.431a.492.492 0 00-.619.478v.13c1.65.26 4.372.791 6.44 1.678C10.09 8.626 7.21 7.772 5.953 7.43z" fill="url(#paint3_linear)"/><path d="M20.661 8.04v-.131a.492.492 0 00-.62-.478c-1.256.341-4.134 1.192-5.816 2.283 2.07-.884 4.783-1.413 6.436-1.675z" fill="url(#paint4_linear)"/><path d="M4.588 8.477a.453.453 0 00-.516.45v.03l7.38 1.22c-2.37-.988-5.615-1.52-6.864-1.7z" fill="url(#paint5_linear)"/><path d="M21.923 8.957v-.03a.453.453 0 00-.516-.45c-1.249.18-4.5.712-6.87 1.702l7.386-1.222z" fill="url(#paint6_linear)"/><path d="M2.093 10.069l1.124 8.996a1.366 1.366 0 001.164 1.183l8.241 1.167V10.921l-9.74-1.61a.683.683 0 00-.789.758z" fill="url(#paint7_linear)"/><path d="M23.11 9.31l-9.944 1.644v10.49l8.445-1.196a1.366 1.366 0 001.165-1.183l1.123-8.996a.683.683 0 00-.79-.759z" fill="url(#paint8_linear)"/><defs><linearGradient id="paint0_linear" x1="12.996" y1="3.898" x2="12.996" y2="8.113" gradientUnits="userSpaceOnUse"><stop stop-color="#6D49C5"/><stop offset="1" stop-color="#472D88"/></linearGradient><linearGradient id="paint1_linear" x1="9.52" y1="2.559" x2="9.52" y2="4.595" gradientUnits="userSpaceOnUse"><stop stop-color="#6D49C5"/><stop offset="1" stop-color="#472D88"/></linearGradient><linearGradient id="paint2_linear" x1="16.477" y1="2.559" x2="16.477" y2="4.595" gradientUnits="userSpaceOnUse"><stop stop-color="#6D49C5"/><stop offset="1" stop-color="#472D88"/></linearGradient><linearGradient id="paint3_linear" x1="8.554" y1="7.414" x2="8.554" y2="9.717" gradientUnits="userSpaceOnUse"><stop stop-color="#6D49C5"/><stop offset="1" stop-color="#472D88"/></linearGradient><linearGradient id="paint4_linear" x1="17.443" y1="7.414" x2="17.443" y2="9.714" gradientUnits="userSpaceOnUse"><stop stop-color="#6D49C5"/><stop offset="1" stop-color="#472D88"/></linearGradient><linearGradient id="paint5_linear" x1="7.762" y1="8.473" x2="7.762" y2="10.176" gradientUnits="userSpaceOnUse"><stop stop-color="#6D49C5"/><stop offset="1" stop-color="#472D88"/></linearGradient><linearGradient id="paint6_linear" x1="18.23" y1="8.473" x2="18.23" y2="10.179" gradientUnits="userSpaceOnUse"><stop stop-color="#6D49C5"/><stop offset="1" stop-color="#472D88"/></linearGradient><linearGradient id="paint7_linear" x1="7.355" y1="9.301" x2="7.355" y2="21.415" gradientUnits="userSpaceOnUse"><stop stop-color="#6D49C5"/><stop offset="1" stop-color="#472D88"/></linearGradient><linearGradient id="paint8_linear" x1="18.535" y1="9.301" x2="18.535" y2="21.444" gradientUnits="userSpaceOnUse"><stop stop-color="#6D49C5"/><stop offset="1" stop-color="#472D88"/></linearGradient></defs></svg>