<svg width="14" height="18" fill="none" xmlns="http://www.w3.org/2000/svg"><path d="M7.954.494c-.456-.612-1.451-.612-1.907 0C4.351 2.76.406 8.342.406 11.267.406 14.978 3.36 18 7 18c3.639 0 6.594-3.022 6.594-6.733 0-2.925-3.945-8.507-5.641-10.773zm.605 14.484a.589.589 0 01-.713-.33.592.592 0 01.222-.749c.084-.054 1.942-1.307 1.792-4.262a.602.602 0 01.468-.618c.282-.06.575.09.683.36.036.078.822 2.014.018 3.68-.45.93-1.283 1.578-2.47 1.92z" fill="url(#paint0_linear)"/><defs><linearGradient id="paint0_linear" x1="7.001" y1=".035" x2="7.001" y2="18" gradientUnits="userSpaceOnUse"><stop stop-color="#6D49C5"/><stop offset="1" stop-color="#472D88"/></linearGradient></defs></svg>