<svg width="34" height="34" fill="none" xmlns="http://www.w3.org/2000/svg"><path fill-rule="evenodd" clip-rule="evenodd" d="M15.584 0h2.834v4.25h-2.834V0zM5.978 3.98L3.975 5.985 6.98 8.99l2.003-2.004-3.005-3.005zM4.25 15.582H0v2.834h4.25V15.58zM28.02 3.98l-3.006 3.005 2.003 2.003 3.006-3.005-2.004-2.003zm1.73 11.601H34v2.834h-4.25V15.58zm-2.733 9.43l-2.003 2.004 3.005 3.005 2.004-2.003-3.006-3.005zM15.584 29.75h2.834V34h-2.834v-4.25zM6.98 25.01l-3.005 3.006 2.003 2.003 3.005-3.005L6.98 25.01zm.104-8.012c0-5.468 4.45-9.917 9.917-9.917s9.917 4.449 9.917 9.917-4.45 9.917-9.917 9.917-9.917-4.449-9.917-9.917zm9.917-7.083a7.091 7.091 0 00-7.083 7.083A7.091 7.091 0 0017 24.081V9.915z" fill="url(#paint0_linear)"/><defs><linearGradient id="paint0_linear" x1="17" y1="0" x2="17" y2="34" gradientUnits="userSpaceOnUse"><stop stop-color="#6D49C5"/><stop offset="1" stop-color="#472D88"/></linearGradient></defs></svg>